HIERARCHY
ROOT Hips
{
   OFFSET 0.00000 0.00000 0.00000
   CHANNELS 6 Xposition Yposition Zposition Zrotation Xrotation Yrotation
   JOINT RightUpLeg
   {
      OFFSET -8.945800 -8.667070 0.101652
      CHANNELS 3 Zrotation Xrotation Yrotation
      JOINT RightLeg
      {
         OFFSET 0.000000 -44.422697 1.372700
         CHANNELS 3 Zrotation Xrotation Yrotation
         JOINT RightFoot
         {
            OFFSET 0.253549 -42.092399 -1.460590
            CHANNELS 3 Zrotation Xrotation Yrotation
            JOINT RightToes
            {
               OFFSET 0.040000 -4.415090 8.499099
               CHANNELS 3 Zrotation Xrotation Yrotation
               End Site
               {
                  OFFSET -0.080000 -0.137448 9.779790
               }
            }
         }
      }
   }
   JOINT Spine
   {
      OFFSET 0.000000 11.890501 0.000000
      CHANNELS 3 Zrotation Xrotation Yrotation
      JOINT Spine1
      {
         OFFSET 0.000000 25.657401 0.127663
         CHANNELS 3 Zrotation Xrotation Yrotation
         JOINT HEad
         {
            OFFSET 0.000000 8.734161 0.011341
            CHANNELS 3 Zrotation Xrotation Yrotation
            End Site
            {
               OFFSET -0.290000 12.774200 2.513950
            }
         }
         JOINT LeftShoulder1
         {
            OFFSET 8.990000 -0.362252 -0.220000
            CHANNELS 3 Zrotation Xrotation Yrotation
            JOINT LeftArm
            {
               OFFSET 10.282700 -0.003380 0.322123
               CHANNELS 3 Zrotation Xrotation Yrotation
               JOINT LeftForeArm
               {
                  OFFSET 32.766900 0.099144 -1.424340
                  CHANNELS 3 Zrotation Xrotation Yrotation
                  JOINT LeftHand
                  {
                     OFFSET 27.564301 0.085362 1.022160
                     CHANNELS 3 Zrotation Xrotation Yrotation
                     End Site
                     {
                        OFFSET 16.744301 -0.600000 1.502910
                     }
                  }
               }
            }
         }
         JOINT RightShoulder
         {
            OFFSET -8.990000 -0.362252 -0.220000
            CHANNELS 3 Zrotation Xrotation Yrotation
            JOINT RightArm
            {
               OFFSET -10.282700 -0.003380 0.322123
               CHANNELS 3 Zrotation Xrotation Yrotation
               JOINT RightForeArm
               {
                  OFFSET -32.897098 0.099144 -1.424340
                  CHANNELS 3 Zrotation Xrotation Yrotation
                  JOINT RightHand
                  {
                     OFFSET -27.492101 0.085362 1.022160
                     CHANNELS 3 Zrotation Xrotation Yrotation
                     End Site
                     {
                        OFFSET -16.631201 -0.600000 1.502910
                     }
                  }
               }
            }
         }
      }
   }
   JOINT LeftUpLeg
   {
      OFFSET 8.945800 -8.667070 0.101652
      CHANNELS 3 Zrotation Xrotation Yrotation
      JOINT LeftLeg
      {
         OFFSET 0.000000 -44.422697 1.372700
         CHANNELS 3 Zrotation Xrotation Yrotation
         JOINT LeftFoot
         {
            OFFSET -0.253549 -42.092399 -1.460590
            CHANNELS 3 Zrotation Xrotation Yrotation
            JOINT LeftToes
            {
               OFFSET -0.040000 -4.415090 8.499099
               CHANNELS 3 Zrotation Xrotation Yrotation
               End Site
               {
                  OFFSET 0.080000 -0.047448 9.779790
               }
            }
         }
      }
   }
}
MOTION
Frames: 7
Frame Time: 0.016667
-413.106569 94.965914 -40.729856 39.895060 -16.618614 72.738216 -20.824661 23.076370 -2.288205 2.217000 33.964953 -27.537229 -27.618102 8.173695 47.219973 3.718865 -11.662484 -31.153705 -3.456351 48.041553 162.060622 7.918604 -14.177922 -145.878648 10.609141 6.251303 0.544440 -67.146674 132.756283 79.589681 -98.872152 75.046116 -233.057174 -49.346587 70.810122 1.632802 -45.360488 -22.511369 -44.940872 17.042572 97.301290 20.748534 117.188766 129.221469 158.837046 -10.874951 178.841509 73.959003 25.830288 -9.514415 50.248722 16.936702 9.640769 -111.451530 -15.323792 -27.184660 134.075794 15.526509 39.958331 -2.138947 -44.695074 -23.577586 10.434489
-412.557176 95.809783 -40.901894 39.381993 -16.510430 72.066610 -21.091889 24.323511 -2.060747 2.368207 34.245797 -25.955385 -25.451406 7.033679 46.977891 3.550799 -12.298450 -31.414513 -3.507685 50.695703 160.736904 7.830387 -11.109397 -147.870317 9.920640 7.676854 -0.411458 -68.286073 129.839396 79.851496 -98.140755 74.766953 -235.423944 -58.185521 70.660397 6.490204 -48.749338 -26.341982 -49.915938 25.636109 95.986930 18.144322 116.420834 123.218129 160.032343 -9.714605 178.164159 81.817224 18.539500 -9.310601 51.137695 15.659124 9.424897 -112.689461 -15.069129 -26.672696 133.337068 16.227694 39.805065 -2.272697 -44.803685 -23.456748 10.585747
-411.958993 96.579741 -40.998573 38.186362 -16.893780 72.084218 -20.045845 25.500310 -2.214529 3.540853 34.926954 -24.004418 -23.793512 6.538052 46.570911 3.496890 -12.996902 -32.027911 -2.953950 52.056618 158.237342 6.882448 -8.747720 -149.665127 9.006232 7.959622 -2.215288 -69.735425 125.801334 80.100436 -95.107556 74.189679 -237.268395 -68.865273 68.082848 16.434342 -50.847808 -29.480053 -57.119154 33.229762 93.524462 14.520171 118.198555 107.214046 162.602721 -18.730359 170.613604 86.831696 11.140978 -7.327446 50.303732 14.572094 8.457114 -113.809618 -15.735880 -25.685883 131.888426 16.802947 38.936487 -2.272831 -44.876385 -23.647095 10.802776
-411.266817 97.434271 -41.085061 37.187867 -17.554705 73.170908 -18.368641 27.514994 -1.984381 6.407651 36.351138 -19.964071 -23.393150 6.260962 46.141674 3.374628 -14.008372 -32.913473 -1.084666 50.406864 155.548816 7.379458 -7.731988 -150.535020 8.162440 11.608937 -7.318258 -70.738623 120.555694 79.973988 -91.067609 73.874718 -240.468503 -85.436787 59.552850 32.690235 -42.444640 -18.484592 -51.770392 34.026288 92.155453 15.610792 122.942913 77.971138 165.398495 -48.133333 155.607637 109.012360 2.459899 -11.355221 38.525573 14.066248 7.654670 -115.563918 -15.858719 -23.666271 128.080841 16.723269 37.829539 -2.885115 -45.072087 -23.145136 10.902282
-410.526918 98.404816 -41.125407 36.694764 -18.528790 71.092898 -18.477936 29.791974 -0.893464 7.680207 37.647996 -16.433729 -22.075880 5.669346 45.563150 3.398448 -14.790211 -34.095102 4.115752 48.205491 151.019307 11.361606 -9.359056 -150.495446 8.673915 13.419913 -15.244870 -72.845682 111.265120 80.499831 -87.429877 72.155860 -242.435707 -94.475115 54.561136 39.625800 -39.100487 -19.062336 -51.986551 41.067376 89.934720 2.108578 125.817685 55.428542 160.273667 -46.312900 135.838160 124.406268 -3.745060 -17.631256 27.262099 11.868868 8.138723 -116.506321 -16.424332 -21.259983 123.263468 16.897255 37.158203 -2.734316 -45.396197 -22.338793 11.479476
-409.520944 99.219902 -41.178846 37.276761 -18.148019 74.734093 -17.808970 34.139700 -1.741892 11.049171 38.985757 -14.742577 -20.903294 5.033046 44.737725 3.726696 -15.180818 -35.815726 9.946511 38.012236 149.977772 11.958604 -12.342819 -148.542804 9.795597 19.263242 -24.050242 -77.567050 110.501696 76.737804 -81.323121 71.618693 -237.950349 -100.432686 49.994963 47.438594 -35.444901 -12.582030 -48.790719 48.442762 74.137899 -3.507983 127.033541 38.724598 161.416863 -27.173431 112.469679 91.140883 -0.919682 -31.970128 22.637590 8.820938 8.006653 -117.716985 -17.163989 -17.533120 117.007042 17.250722 36.535365 -2.337649 -45.575294 -21.726562 12.070895
-408.173898 99.959505 -41.200117 36.141003 -16.981184 79.153607 -16.169110 36.767796 -4.454585 13.964720 37.698802 -13.886500 -20.517957 4.550818 43.575128 4.520050 -14.674115 -37.510822 17.179082 35.476283 156.845090 14.347524 -10.755242 -142.309259 9.308738 24.815918 -32.984920 -82.810334 112.514089 74.852262 -76.872447 69.042182 -231.904511 -109.540873 46.195605 52.787407 -33.934818 -12.853886 -46.304164 53.128025 58.802683 -10.266813 129.121297 22.129588 161.177370 -9.563383 86.489087 65.146802 10.004889 -34.917180 38.196412 5.575786 7.320920 -119.156748 -17.098738 -13.207232 108.914811 18.189887 35.167442 -1.859523 -45.542909 -21.273512 12.330288
